<svg width="20" height="20" viewBox="0 0 20 20" fill="none" xmlns="http://www.w3.org/2000/svg">
<path fill-rule="evenodd" clip-rule="evenodd" d="M6.25 5.625C6.25 5.45924 6.18415 5.30027 6.06694 5.18306C5.94973 5.06585 5.79076 5 5.625 5C5.45924 5 5.30027 5.06585 5.18306 5.18306C5.06585 5.30027 5 5.45924 5 5.625V14.375C5 14.5408 5.06585 14.6997 5.18306 14.8169C5.30027 14.9342 5.45924 15 5.625 15H14.375C14.5408 15 14.6997 14.9342 14.8169 14.8169C14.9342 14.6997 15 14.5408 15 14.375C15 14.2092 14.9342 14.0503 14.8169 13.9331C14.6997 13.8158 14.5408 13.75 14.375 13.75H11.25C11.25 12.4239 10.7232 11.1521 9.78553 10.2145C8.84785 9.27678 7.57608 8.75 6.25 8.75V5.625ZM6.25 10V13.75H10C10 12.7554 9.60491 11.8016 8.90165 11.0983C8.19839 10.3951 7.24456 10 6.25 10Z" fill="#868E96"/>
</svg>
