<svg width="9" height="17" viewBox="0 0 9 17" fill="none" xmlns="http://www.w3.org/2000/svg">
<path d="M8.52934 0.220011C8.66979 0.360637 8.74868 0.551261 8.74868 0.750011C8.74868 0.948762 8.66979 1.13939 8.52934 1.28001L1.80934 8.00001L8.52934 14.72C8.60303 14.7887 8.66213 14.8715 8.70312 14.9635C8.74411 15.0555 8.76616 15.1548 8.76793 15.2555C8.76971 15.3562 8.75118 15.4562 8.71346 15.5496C8.67574 15.643 8.6196 15.7278 8.54838 15.799C8.47716 15.8703 8.39233 15.9264 8.29894 15.9641C8.20555 16.0019 8.10552 16.0204 8.00482 16.0186C7.90412 16.0168 7.8048 15.9948 7.7128 15.9538C7.6208 15.9128 7.538 15.8537 7.46934 15.78L0.21934 8.53001C0.0788894 8.38939 0 8.19876 0 8.00001C0 7.80126 0.0788894 7.61064 0.21934 7.47001L7.46934 0.220011C7.60997 0.0795608 7.80059 0.000671387 7.99934 0.000671387C8.19809 0.000671387 8.38871 0.0795608 8.52934 0.220011Z" fill="#292929"/>
</svg>
