<svg width="24" height="24" viewBox="0 0 24 24" fill="none" xmlns="http://www.w3.org/2000/svg">
<path d="M4.5 6.74995L4.503 4.62695C4.06349 4.78164 3.68285 5.06897 3.41362 5.44925C3.1444 5.82953 2.99987 6.28402 3 6.74995V17.254C3 18.5137 3.50045 19.7219 4.39124 20.6127C5.28204 21.5035 6.49022 22.004 7.75 22.004H12.814C12.3845 21.5578 12.0209 21.0527 11.734 20.504H7.75C6.88805 20.504 6.0614 20.1615 5.4519 19.5521C4.84241 18.9426 4.5 18.1159 4.5 17.254V6.74995Z" fill="#292929"/>
<path d="M19 11.174C17.8777 10.9072 16.7046 10.944 15.6011 11.2804C14.4977 11.6169 13.5037 12.241 12.7212 13.0886C11.9386 13.9361 11.3957 14.9767 11.1483 16.1035C10.9008 17.2302 10.9577 18.4025 11.313 19.5H7.75C7.15326 19.5 6.58097 19.2629 6.15901 18.841C5.73705 18.419 5.5 17.8467 5.5 17.25V4.25C5.5 3.65326 5.73705 3.08097 6.15901 2.65901C6.58097 2.23705 7.15326 2 7.75 2H16.75C17.0455 2 17.3381 2.0582 17.611 2.17127C17.884 2.28434 18.1321 2.45008 18.341 2.65901C18.5499 2.86794 18.7157 3.11598 18.8287 3.38896C18.9418 3.66194 19 3.95453 19 4.25V11.174Z" fill="#292929"/>
<path d="M17.5 12C18.9587 12 20.3576 12.5795 21.3891 13.6109C22.4205 14.6424 23 16.0413 23 17.5C23 18.9587 22.4205 20.3576 21.3891 21.3891C20.3576 22.4205 18.9587 23 17.5 23C16.0413 23 14.6424 22.4205 13.6109 21.3891C12.5795 20.3576 12 18.9587 12 17.5C12 16.0413 12.5795 14.6424 13.6109 13.6109C14.6424 12.5795 16.0413 12 17.5 12ZM18.001 20.503V18H20.497C20.6296 18 20.7568 17.9473 20.8506 17.8536C20.9443 17.7598 20.997 17.6326 20.997 17.5C20.997 17.3674 20.9443 17.2402 20.8506 17.1464C20.7568 17.0527 20.6296 17 20.497 17H18V14.5C18 14.3674 17.9473 14.2402 17.8536 14.1464C17.7598 14.0527 17.6326 14 17.5 14C17.3674 14 17.2402 14.0527 17.1464 14.1464C17.0527 14.2402 17 14.3674 17 14.5V17H14.496C14.3634 17 14.2362 17.0527 14.1424 17.1464C14.0487 17.2402 13.996 17.3674 13.996 17.5C13.996 17.6326 14.0487 17.7598 14.1424 17.8536C14.2362 17.9473 14.3634 18 14.496 18H17V20.503C17 20.6356 17.0527 20.7628 17.1464 20.8566C17.2402 20.9503 17.3674 21.003 17.5 21.003C17.6326 21.003 17.7598 20.9503 17.8536 20.8566C17.9473 20.7628 18.001 20.6356 18.001 20.503Z" fill="#292929"/>
</svg>
