<svg width="24" height="24" viewBox="0 0 24 24" fill="none" xmlns="http://www.w3.org/2000/svg">
<path d="M5.25006 20.5H18.7481C18.938 20.5003 19.1207 20.5727 19.2594 20.7025C19.3981 20.8323 19.4823 21.0099 19.4951 21.1994C19.5079 21.3889 19.4484 21.5762 19.3285 21.7235C19.2086 21.8708 19.0372 21.9671 18.8491 21.993L18.7481 22H5.25006C5.05868 22.0019 4.8738 21.9307 4.73328 21.8007C4.59275 21.6708 4.50721 21.4921 4.49417 21.3011C4.48114 21.1102 4.54159 20.9215 4.66316 20.7737C4.78472 20.6258 4.95819 20.5301 5.14806 20.506L5.25006 20.5ZM11.8831 2.002L12.0001 1.995C12.245 1.99503 12.4814 2.08495 12.6644 2.24771C12.8475 2.41047 12.9644 2.63474 12.9931 2.878L13.0001 2.99499V15.585L16.2941 12.292C16.4663 12.1198 16.6954 12.0164 16.9384 12.0011C17.1814 11.9858 17.4217 12.0597 17.6141 12.209L17.7081 12.293C17.8802 12.4652 17.9837 12.6943 17.999 12.9373C18.0142 13.1803 17.9403 13.4206 17.7911 13.613L17.7081 13.707L12.7111 18.703C12.539 18.8753 12.31 18.9789 12.0669 18.9944C11.8239 19.0099 11.5836 18.9361 11.3911 18.787L11.2971 18.704L6.29306 13.707C6.11181 13.5275 6.00603 13.2854 5.99738 13.0304C5.98873 12.7755 6.07786 12.5268 6.24653 12.3354C6.41519 12.144 6.65064 12.0243 6.90468 12.0008C7.15872 11.9773 7.41214 12.0518 7.61306 12.209L7.70706 12.292L11.0001 15.58V2.99499C11.0001 2.75006 11.09 2.51366 11.2528 2.33062C11.4155 2.14759 11.6398 2.03065 11.8831 2.002Z" fill="#292929"/>
</svg>