<svg width="24" height="24" viewBox="0 0 24 24" fill="none" xmlns="http://www.w3.org/2000/svg">
<path d="M19.25 18C19.38 17.9999 19.5078 17.9661 19.6208 17.9019C19.7338 17.8376 19.8281 17.7451 19.8946 17.6333C19.961 17.5216 19.9973 17.3945 19.9998 17.2646C20.0024 17.1346 19.9711 17.0062 19.909 16.892L13.659 5.39195C13.5794 5.24543 13.4532 5.12962 13.3004 5.06282C13.1476 4.99603 12.9769 4.98206 12.8153 5.02312C12.6537 5.06419 12.5104 5.15794 12.408 5.28957C12.3056 5.4212 12.25 5.5832 12.25 5.74995V17.25C12.25 17.4489 12.329 17.6396 12.4697 17.7803C12.6103 17.9209 12.8011 18 13 18H19.25ZM13.3004 16.892V6.86664L18.6052 16.8666L13.3004 16.892ZM4.25001 18C4.12002 17.9999 3.99225 17.9661 3.87925 17.9019C3.76626 17.8376 3.6719 17.7451 3.60545 17.6333C3.539 17.5216 3.50273 17.3945 3.50019 17.2646C3.49766 17.1346 3.52896 17.0062 3.59101 16.892L9.84101 5.39195C9.92063 5.24543 10.0468 5.12962 10.1996 5.06282C10.3524 4.99603 10.5231 4.98206 10.6847 5.02312C10.8463 5.06419 10.9897 5.15794 11.092 5.28957C11.1944 5.4212 11.25 5.5832 11.25 5.74995V17.25C11.25 17.4489 11.171 17.6396 11.0303 17.7803C10.8897 17.9209 10.6989 18 10.5 18H4.25001Z" fill="#292929"/>
</svg>
