<svg width="24" height="24" viewBox="0 0 24 24" fill="none" xmlns="http://www.w3.org/2000/svg">
<path d="M18 4.74999C17.9999 4.61999 17.9661 4.49223 17.9019 4.37923C17.8376 4.26623 17.7451 4.17188 17.6333 4.10543C17.5216 4.03897 17.3945 4.0027 17.2646 4.00017C17.1346 3.99764 17.0062 4.02894 16.892 4.09099L5.39195 10.341C5.24543 10.4206 5.12962 10.5468 5.06282 10.6996C4.99603 10.8524 4.98206 11.0231 5.02312 11.1847C5.06419 11.3463 5.15794 11.4896 5.28957 11.592C5.4212 11.6944 5.5832 11.75 5.74995 11.75H17.25C17.4489 11.75 17.6396 11.671 17.7803 11.5303C17.9209 11.3897 18 11.1989 18 11V4.74999ZM16.892 10.6996H6.86664L16.8666 5.39478L16.892 10.6996ZM18 19.75C17.9999 19.88 17.9661 20.0077 17.9019 20.1207C17.8376 20.2337 17.7451 20.3281 17.6333 20.3946C17.5216 20.461 17.3945 20.4973 17.2646 20.4998C17.1346 20.5023 17.0062 20.471 16.892 20.409L5.39195 14.159C5.24543 14.0794 5.12962 13.9532 5.06282 13.8004C4.99603 13.6476 4.98206 13.4769 5.02312 13.3153C5.06419 13.1537 5.15794 13.0103 5.28957 12.908C5.4212 12.8056 5.5832 12.75 5.74995 12.75H17.25C17.4489 12.75 17.6396 12.829 17.7803 12.9697C17.9209 13.1103 18 13.3011 18 13.5V19.75Z" fill="#292929"/>
</svg>