<svg width="24" height="24" viewBox="0 0 24 24" fill="none" xmlns="http://www.w3.org/2000/svg">
<g clip-path="url(#clip0_54_69)">
<path d="M4.75659 16.6858C5.41951 16.6858 5.99207 16.294 6.27081 15.729L17.6162 19.0588C17.8121 19.782 18.4675 20.3169 19.251 20.3169C20.1701 20.3169 20.931 19.5636 20.931 18.6369C20.931 17.9363 20.5015 17.3336 19.8913 17.0775L19.575 9.50637C20.2228 9.27282 20.6899 8.64754 20.6899 7.91681C20.6899 6.99016 19.9291 6.23683 19.0099 6.23683C18.3997 6.23683 17.8573 6.56832 17.5634 7.05798L11.2881 5.33281C11.2881 4.44387 10.5272 3.68298 9.60814 3.68298C8.68152 3.68298 7.92064 4.44387 7.92064 5.37048C7.92064 5.8677 8.13911 6.31969 8.49317 6.62859L4.99766 13.3334C4.92232 13.3183 4.83946 13.3183 4.75659 13.3183C3.82995 13.3183 3.06909 14.0717 3.06909 14.9983C3.06909 15.9249 3.82995 16.6858 4.75659 16.6858ZM9.60814 7.05798C10.1581 7.05798 10.6553 6.77924 10.9641 6.35737L17.33 8.11265C17.4128 8.78315 17.8874 9.34064 18.5203 9.52897L18.784 17.0097C18.2867 17.1604 17.8799 17.5295 17.6841 18.0041L6.40642 14.6894C6.34615 14.373 6.19547 14.0792 5.98455 13.8532L9.48008 7.05046C9.51772 7.05046 9.56294 7.05798 9.60814 7.05798Z" fill="#292929"/>
</g>
<defs>
<clipPath id="clip0_54_69">
<rect width="18" height="18" fill="white" transform="translate(3 3)"/>
</clipPath>
</defs>
</svg>