<svg width="24" height="24" viewBox="0 0 24 24" fill="none" xmlns="http://www.w3.org/2000/svg">
<path fill-rule="evenodd" clip-rule="evenodd" d="M10.2329 6.47395C10.7018 6.00527 11.3375 5.74199 12.0004 5.74199C12.6634 5.74199 13.2991 6.00527 13.7679 6.47395L15.2929 7.99995H13.9999C13.8673 7.99995 13.7402 8.05263 13.6464 8.1464C13.5526 8.24017 13.4999 8.36734 13.4999 8.49995C13.4999 8.63256 13.5526 8.75974 13.6464 8.85351C13.7402 8.94727 13.8673 8.99995 13.9999 8.99995H16.4999C16.6326 8.99995 16.7597 8.94727 16.8535 8.85351C16.9473 8.75974 16.9999 8.63256 16.9999 8.49995V5.99995C16.9999 5.86734 16.9473 5.74017 16.8535 5.6464C16.7597 5.55263 16.6326 5.49995 16.4999 5.49995C16.3673 5.49995 16.2402 5.55263 16.1464 5.6464C16.0526 5.74017 15.9999 5.86734 15.9999 5.99995V7.29195L14.4749 5.76695C14.1499 5.44191 13.7641 5.18407 13.3394 5.00815C12.9148 4.83224 12.4596 4.7417 11.9999 4.7417C11.5403 4.7417 11.0851 4.83224 10.6605 5.00815C10.2358 5.18407 9.84996 5.44191 9.52495 5.76695L7.14695 8.14595C7.05587 8.24025 7.00547 8.36655 7.00661 8.49765C7.00775 8.62875 7.06033 8.75416 7.15304 8.84686C7.24574 8.93957 7.37115 8.99215 7.50225 8.99329C7.63335 8.99443 7.75965 8.94403 7.85395 8.85295L10.2329 6.47395ZM13.0609 9.64595C12.7797 9.36475 12.3982 9.20677 12.0004 9.20677C11.6027 9.20677 11.2212 9.36475 10.9399 9.64595L7.64695 12.939C7.36574 13.2202 7.20777 13.6017 7.20777 13.9995C7.20777 14.3972 7.36574 14.7787 7.64695 15.06L10.9399 18.353C11.2212 18.6339 11.6024 18.7916 11.9999 18.7916C12.3974 18.7916 12.7787 18.6339 13.0599 18.353L16.3539 15.06C16.6352 14.7787 16.7931 14.3972 16.7931 13.9995C16.7931 13.6017 16.6352 13.2202 16.3539 12.939L13.0609 9.64595ZM11.6469 10.353C11.7407 10.2592 11.8679 10.2066 12.0004 10.2066C12.133 10.2066 12.2602 10.2592 12.3539 10.353L15.6469 13.646C15.7407 13.7397 15.7933 13.8669 15.7933 13.9995C15.7933 14.132 15.7407 14.2592 15.6469 14.353L12.3539 17.646C12.2602 17.7397 12.133 17.7923 12.0004 17.7923C11.8679 17.7923 11.7407 17.7397 11.6469 17.646L8.35395 14.353C8.26021 14.2592 8.20755 14.132 8.20755 13.9995C8.20755 13.8669 8.26021 13.7397 8.35395 13.646L11.6469 10.353Z" fill="#292929"/>
</svg>