<svg width="24" height="24" viewBox="0 0 24 24" fill="none" xmlns="http://www.w3.org/2000/svg">
<path d="M4.5 6.25C4.5 5.284 5.284 4.5 6.25 4.5H7.75C7.94891 4.5 8.13968 4.42098 8.28033 4.28033C8.42098 4.13968 8.5 3.94891 8.5 3.75C8.5 3.55109 8.42098 3.36032 8.28033 3.21967C8.13968 3.07902 7.94891 3 7.75 3H6.25C5.38805 3 4.5614 3.34241 3.9519 3.9519C3.34241 4.5614 3 5.38805 3 6.25V7.75C3 7.94891 3.07902 8.13968 3.21967 8.28033C3.36032 8.42098 3.55109 8.5 3.75 8.5C3.94891 8.5 4.13968 8.42098 4.28033 8.28033C4.42098 8.13968 4.5 7.94891 4.5 7.75V6.25ZM17.75 4.5C18.716 4.5 19.5 5.284 19.5 6.25V7.75C19.5 7.94891 19.579 8.13968 19.7197 8.28033C19.8603 8.42098 20.0511 8.5 20.25 8.5C20.4489 8.5 20.6397 8.42098 20.7803 8.28033C20.921 8.13968 21 7.94891 21 7.75V6.25C21 5.38805 20.6576 4.5614 20.0481 3.9519C19.4386 3.34241 18.612 3 17.75 3H16.25C16.0511 3 15.8603 3.07902 15.7197 3.21967C15.579 3.36032 15.5 3.55109 15.5 3.75C15.5 3.94891 15.579 4.13968 15.7197 4.28033C15.8603 4.42098 16.0511 4.5 16.25 4.5H17.75ZM17.75 19.5C18.2141 19.5 18.6592 19.3156 18.9874 18.9874C19.3156 18.6592 19.5 18.2141 19.5 17.75V16.25C19.5 16.0511 19.579 15.8603 19.7197 15.7197C19.8603 15.579 20.0511 15.5 20.25 15.5C20.4489 15.5 20.6397 15.579 20.7803 15.7197C20.921 15.8603 21 16.0511 21 16.25V17.75C21 18.612 20.6576 19.4386 20.0481 20.0481C19.4386 20.6576 18.612 21 17.75 21H16.25C16.0511 21 15.8603 20.921 15.7197 20.7803C15.579 20.6397 15.5 20.4489 15.5 20.25C15.5 20.0511 15.579 19.8603 15.7197 19.7197C15.8603 19.579 16.0511 19.5 16.25 19.5H17.75ZM6.25 19.5C5.78587 19.5 5.34075 19.3156 5.01256 18.9874C4.68437 18.6592 4.5 18.2141 4.5 17.75V16.25C4.5 16.0511 4.42098 15.8603 4.28033 15.7197C4.13968 15.579 3.94891 15.5 3.75 15.5C3.55109 15.5 3.36032 15.579 3.21967 15.7197C3.07902 15.8603 3 16.0511 3 16.25V17.75C3 18.612 3.34241 19.4386 3.9519 20.0481C4.5614 20.6576 5.38805 21 6.25 21H7.75C7.94891 21 8.13968 20.921 8.28033 20.7803C8.42098 20.6397 8.5 20.4489 8.5 20.25C8.5 20.0511 8.42098 19.8603 8.28033 19.7197C8.13968 19.579 7.94891 19.5 7.75 19.5H6.25ZM8.25 6C7.65326 6 7.08097 6.23705 6.65901 6.65901C6.23705 7.08097 6 7.65326 6 8.25V15.75C6 16.3467 6.23705 16.919 6.65901 17.341C7.08097 17.7629 7.65326 18 8.25 18H15.75C16.3467 18 16.919 17.7629 17.341 17.341C17.7629 16.919 18 16.3467 18 15.75V8.25C18 7.65326 17.7629 7.08097 17.341 6.65901C16.919 6.23705 16.3467 6 15.75 6H8.25Z" fill="#292929"/>
</svg>
